<?xml version="1.0" encoding="utf-8"?>
<!-- Generator: Adobe Illustrator 19.1.0, SVG Export Plug-In . SVG Version: 6.00 Build 0)  -->
<svg version="1.1" id="Layer_1" xmlns="http://www.w3.org/2000/svg" xmlns:xlink="http://www.w3.org/1999/xlink" x="0px" y="0px"
	 width="70px" height="70px" viewBox="0 0 70 70" style="enable-background:new 0 0 70 70;" xml:space="preserve">
<g>
	<g>
		<g>
			<line style="fill:none;" x1="13.4" y1="56.3" x2="36.8" y2="12.3"/>
			<line style="fill:none;" x1="56.7" y1="13.1" x2="15.2" y2="55"/>
			<line style="fill:none;" x1="51.3" y1="63.1" x2="9.6" y2="13.1"/>
			<line style="fill:none;" x1="9.6" y1="13" x2="56.7" y2="13.1"/>
			<line style="fill:none;" x1="51.3" y1="63.1" x2="61.5" y2="50.2"/>
			<polygon style="fill:#FEED47;" points="20.8,40.1 46.5,68 58.2,56.3 36.3,29.7 			"/>
			<path style="fill:#FEED47;" d="M48.4,69.3c-6.1-3-5.1-11.4,1.8-12.9c1.1-0.3,2.4-0.2,3.5,0.3c6.4,2.7,5.8,11.1-0.7,13
				C51.4,70.2,49.8,70,48.4,69.3z"/>
			<polygon style="fill:#FEED47;" points="53.6,47.2 67.3,56.9 56.2,67.8 46.1,58.6 			"/>
			<linearGradient id="SVGID_1_" gradientUnits="userSpaceOnUse" x1="-3.2594" y1="52.1706" x2="68.8162" y2="52.1706">
				<stop  offset="0" style="stop-color:#27B7EA"/>
				<stop  offset="0.3065" style="stop-color:#7B61AA"/>
				<stop  offset="0.9892" style="stop-color:#FEED47"/>
			</linearGradient>
			<path style="fill:url(#SVGID_1_);" d="M63.2,40.5c-3.4-1-5.3-0.7-9.8-0.8c-1.6,0-3.3,0-4.9,0c-0.1,0-0.2,0-0.2,0
				c-0.4,0-0.8,0-1.2,0c0,0,0,0,0,0c-0.4,0-0.8,0-1.2,0c-0.1,0-0.2,0-0.2,0c-0.7,0-1.4,0-2.1,0.1c-0.1,0-0.2,0-0.2,0
				c-0.3,0-0.6,0-0.9,0c0,0,0,0,0,0c-0.3,0-0.5,0-0.8,0c-0.1,0-0.1,0-0.2,0c-0.2,0-26.1-5.5-26.1-5.5L5,44.2
				c-0.2,0.2-0.3,0.3-0.4,0.4l-0.1,0.1c-6.9,6.8-5.8,18.7,4.4,23.8c2.6,1.3,5.5,1.7,8.2,1.3l0,0.1l41.7-9.4c1.1,0.1,2.2-0.1,3.3-0.4
				c6.3-1.9,8.9-7.8,7.4-12.8C68.7,44.5,66.5,41.5,63.2,40.5z"/>
		</g>
		<linearGradient id="SVGID_2_" gradientUnits="userSpaceOnUse" x1="39.5296" y1="0.8704" x2="38.7001" y2="39.3047">
			<stop  offset="0.3276" style="stop-color:#27B7EA"/>
			<stop  offset="0.9731" style="stop-color:#7B61AA"/>
		</linearGradient>
		<path style="fill:url(#SVGID_2_);" d="M61.3,0.9C59.3,0,57.1-0.2,55,0.2L10.5,3.9L8.4,22.4l33.9,19l5.8,0.3l18.2-19.7
			C72.4,15.9,71.1,5,61.3,0.9z"/>
		<linearGradient id="SVGID_3_" gradientUnits="userSpaceOnUse" x1="31.028" y1="9.4905" x2="21.3958" y2="30.0835">
			<stop  offset="0.3276" style="stop-color:#27B7EA"/>
			<stop  offset="0.7903" style="stop-color:#7B61AA"/>
		</linearGradient>
		<path style="fill:url(#SVGID_3_);" d="M45.7,41.6L19.6,8.4l0,0c-1.1-1.6-2.8-2.9-5-3.8c-1.7-0.7-3.7-0.9-5.5-0.5
			C-0.5,6.2-2.7,16.7,3.5,22.3l18.1,18.6L45.7,41.6z"/>
	</g>
	<g>
		<rect x="13.4" y="13.4" style="fill:#231F20;" width="43.2" height="43.2"/>
		<g>
			<path style="fill:#FFFFFF;" d="M17.4,19.1h4v7.2h7.4v-7.2h4v18.1h-4v-7.3h-7.4v7.3h-4V19.1z"/>
			<path style="fill:#FFFFFF;" d="M35.7,19.1h8.4c2.1,0,3.7,0.6,4.7,1.6c0.8,0.8,1.2,1.8,1.2,3.1v0.1c0,2-1.1,3.2-2.4,3.9
				c2.1,0.8,3.4,2,3.4,4.5v0.1c0,3.3-2.7,5-6.8,5h-8.6V19.1z M46.2,24.4c0-1.2-0.9-1.9-2.6-1.9h-3.9v3.8h3.7
				C45.1,26.4,46.2,25.8,46.2,24.4L46.2,24.4z M44.2,29.7h-4.6v4h4.7c1.8,0,2.8-0.6,2.8-2v-0.1C47.2,30.5,46.3,29.7,44.2,29.7z"/>
		</g>
		<rect x="17.5" y="48.5" style="fill:#FFFFFF;" width="16.2" height="2.7"/>
	</g>
</g>
</svg>
