<?xml version="1.0" encoding="utf-8"?>
<!-- Generator: Adobe Illustrator 25.2.0, SVG Export Plug-In . SVG Version: 6.00 Build 0)  -->
<svg version="1.1" id="Layer_1" xmlns="http://www.w3.org/2000/svg" xmlns:xlink="http://www.w3.org/1999/xlink" x="0px" y="0px"
	 viewBox="0 0 54.2 64" style="enable-background:new 0 0 54.2 64;" xml:space="preserve">
<style type="text/css">
	.st0{fill:#78C257;}
</style>
<path id="Android" class="st0" d="M3.9,20.7c-2.2,0-3.9,1.8-3.9,3.9v16.5c0,2.2,1.8,4,4,4s4-1.8,3.9-4V24.6
	C7.9,22.5,6.1,20.7,3.9,20.7 M35.8,5.8l2.8-5c0.1-0.3,0.1-0.6-0.2-0.7s-0.6,0-0.7,0.2l-2.8,5.1c-2.3-1-5-1.6-7.7-1.6
	c-2.8,0-5.4,0.6-7.7,1.6l-2.8-5.1C16.6,0,16.2-0.1,16,0.1c-0.3,0.1-0.4,0.5-0.2,0.7l2.8,5C12.9,8.6,9.3,14,9.3,20.1h35.6
	C44.9,14,41.2,8.6,35.8,5.8 M19,13.6c-0.8,0-1.5-0.7-1.5-1.5s0.7-1.5,1.5-1.5s1.5,0.7,1.5,1.5C20.5,13,19.8,13.6,19,13.6 M35.2,13.6
	c-0.8,0-1.5-0.7-1.5-1.5s0.7-1.5,1.5-1.5s1.5,0.7,1.5,1.5C36.7,13,36,13.6,35.2,13.6 M9.4,21.4V47c0,2.3,1.9,4.2,4.2,4.2h2.9V60
	c0,2.2,1.8,4,3.9,4c2.2,0,4-1.8,4-4v-8.8h5.3V60c0,2.2,1.8,4,3.9,3.9c2.2,0,4-1.8,4-4v-8.7h2.9c2.3,0,4.2-1.9,4.2-4.2V21.4H9.4z
	 M54.2,24.6c0-2.2-1.8-3.9-3.9-3.9c-2.2,0-3.9,1.8-3.9,4v16.5c0,2.2,1.8,3.9,3.9,3.9c2.2,0,3.9-1.8,3.9-4V24.6z"/>
</svg>
