<?xml version="1.0" encoding="UTF-8" standalone="no"?>
<svg
   xmlns:dc="http://purl.org/dc/elements/1.1/"
   xmlns:cc="http://creativecommons.org/ns#"
   xmlns:rdf="http://www.w3.org/1999/02/22-rdf-syntax-ns#"
   xmlns:svg="http://www.w3.org/2000/svg"
   xmlns="http://www.w3.org/2000/svg"
   version="1.0"
   width="3270"
   height="2699"
   viewBox="0 0 2616 2159.2"
   id="svg2">
  <defs
     id="defs33" />
  <metadata
     id="metadata4">
Made by Mateusz Viste &quot;Fox&quot;
<rdf:RDF>
  <cc:Work
     rdf:about="">
    <dc:format>image/svg+xml</dc:format>
    <dc:type
       rdf:resource="http://purl.org/dc/dcmitype/StillImage" />
    <dc:title></dc:title>
  </cc:Work>
</rdf:RDF>
</metadata>
  <path
     d="m 1017.2002,7.23844 c -318.99996,23 -569.99996,185 -784.99996,504 -122,181.99996 -158.000003,292.99996 -226.0000033,693.99996 -5.99999999,36 -8,117 -4,203 8.0000003,157 1,141 84.0000003,195 19.000003,12 63.000003,60 98.000003,105 34,46 74,93 87,103 l 25,19 -31,67 c -48,102 -45,243 5,243 19,0 92,-53 147,-106 l 45,-44 100,39 c 356,139 780.99996,108 1110.99996,-80 l 88,-51 34,38 c 19,22 60,71 90,109 103,128 123,139 148,78 41,-96 31,-178 -42,-364 l -18,-47 69,-66 c 83,-79 73,-77 118,-18 63,84 193,180 293,218 70,26 71,2 8,-101 -116,-186 -123,-241 -45,-351 54,-78 115,-137 166,-161 41,-19 43,-32 13,-60 -51,-46 -152,-58 -235,-29 -50,18 -59,12 -72,-45 -158,-702.99996 -620,-1127.99996 -1196,-1096.99996 -17,1 -50,3 -75,5 z"
     id="path8" />
  <path
     d="m 1402.2002,93.23844 c 169,42 296,117 421,249 223,237.99996 350,522.99996 413,925.99996 1,2 16,-9 34,-24 55,-46 166,-75 235,-59 27,5 26,7 -63,99 -155,160 -164,275 -34,458 13,17 16,28 8,28 -49,0 -265,-234 -260,-282 6,-60 -74,-18 -122,65 -14,23 -37,53 -52,67 l -27,25 -28,-34 c -26,-30 -30,-32 -49,-19 l -20,14 20,34 c 63,102 128,290 129,365 0,83 -24,82 -83,-4 -46,-69 -176,-210 -208,-226 -68,-36 -106,-12 -54,34 51,44 51,44 -76,114 -232,127 -778.99996,158 -979.99996,57 -111,-57 -287,-191 -331,-252 l -21,-31 24,6 c 13,3 65,17 116,31 205,56 773.99996,65 882.99996,14 142,-66 158,-161 18,-108 -249,95 -761.99996,67 -1067.99996,-57 -74,-30 -141.000003,-58 -149.000003,-61 -18,-7 -9,-324 13,-452 60.000003,-351 248.000003,-686.99996 469.000003,-837.99996 23,-16 59,-40 80,-55 140,-96 534.99996,-139 761.99996,-84 z M 386.20024,1931.2384 c 13,17 22,31 20,33 -44,30 -111,67 -116,62 -9,-9 14,-78 34,-103 23,-29 33,-28 62,8 z"
     id="path4690"
     style="fill:#bfcfe7" />
  <path
     d="m 355.20024,1086.2384 c -119,64 -155,279 -61,365 156,145 374,40 377,-181 2,-138 -193,-251 -316,-184 z"
     id="path10" />
  <path
     d="m 532.20024,1138.2384 c 111,69 128,154 53,259 -120,167 -362,12 -287,-184 32,-85 153,-124 234,-75 z"
     id="path2025"
     style="fill:#ffffff" />
  <path
     d="m 412.20024,1179.2384 c -94,39 -79,201 19,209 44,4 62,-8 82,-56 42,-101 -15,-188 -101,-153 z m 79,44 c 6,9 7,19 3,23 -12,13 -82,-10 -85,-28 -6,-32 61,-28 82,5 z"
     id="path12" />
  <path
     d="m 836.20024,1150.2384 c -152,46 -147,280 8,336 67,23 106,18 147,-20 132.99996,-127 14.99996,-368 -155,-316 z"
     id="path14" />
  <path
     d="m 927.20024,1205.2384 c 87.99996,46 100.99996,145 28,222 -61,65 -178,-10 -178,-112 0,-96 73,-150 150,-110 z"
     id="path2912"
     style="fill:#ffffff" />
  <path
     d="m 832.20024,1256.2384 c -43,66 -7,167 53,148 59,-19 82,-48 82,-104 0,-63 -101,-96 -135,-44 z m 85,9 c 16,19 5,34 -20,28 -24,-6 -34,-19 -25,-33 9,-14 31,-12 45,5 z"
     id="path16" />
</svg>
