<?xml version="1.0" encoding="utf-8"?>
<!-- Generator: Adobe Illustrator 25.2.0, SVG Export Plug-In . SVG Version: 6.00 Build 0)  -->
<svg version="1.1"
	 id="Layer_1" xmlns:cc="http://creativecommons.org/ns#" xmlns:dc="http://purl.org/dc/elements/1.1/" xmlns:rdf="http://www.w3.org/1999/02/22-rdf-syntax-ns#"
	 xmlns="http://www.w3.org/2000/svg" xmlns:xlink="http://www.w3.org/1999/xlink" x="0px" y="0px" viewBox="0 0 185.7 162"
	 style="enable-background:new 0 0 185.7 162;" xml:space="preserve">
<style type="text/css">
	.st0{fill:#0D597F;}
</style>
<g transform="matrix(1.25 0 0 -1.25 -268 592)">
	<g transform="translate(268 393)">
		<path class="st0" d="M0,0v15.7L-11.3,4.4c1.2-0.8,2.4-1.5,3.4-2.1c1.1-0.6,2.1-1,3-1.3C-3.9,0.6-3,0.4-2.2,0.2C-1.4,0.1-0.7,0,0,0
			 M57.8,1.3c0,0,0.1-0.1,0.3-0.2c0.2-0.1,0.5-0.3,0.9-0.5c0.4-0.2,0.9-0.3,1.5-0.4C61.1,0,61.8,0,62.6,0C63.3,0,64,0,64.8,0.2
			c0.8,0.1,1.7,0.4,2.6,0.7c1,0.3,2,0.8,3.1,1.3c1.1,0.6,2.3,1.3,3.5,2.1l-8.6,8.4L37.1,41.2L24.6,28.7L7.8,46L-34.4,4.3
			c1.2-0.9,2.4-1.6,3.5-2.1c1.1-0.6,2.1-1,3.1-1.3c1-0.3,1.8-0.6,2.6-0.7C-24.4,0-23.7,0-23,0c0.8,0,1.5,0.1,2.1,0.2
			c0.6,0.1,1.1,0.3,1.5,0.4c0.4,0.2,0.7,0.3,0.9,0.5s0.3,0.2,0.3,0.2L0.9,20.4l6.8,6.5L26.6,8l6.6-6.8c0,0,0.1-0.1,0.3-0.2
			c0.2-0.1,0.5-0.3,0.9-0.5c0.4-0.2,0.9-0.3,1.5-0.4C36.5,0,37.2-0.1,38-0.1c0.7,0,1.4,0.1,2.2,0.2c0.8,0.1,1.7,0.4,2.6,0.7
			c1,0.3,2,0.8,3.1,1.3c1.1,0.6,2.3,1.3,3.5,2.1L34.3,19.1l2.8,2.8L50.3,8.8l7.6-7.6 M57.7,80.2l37.2-64.5L57.7-48.8h-74.5L-54,15.7
			l37.2,64.5H57.7z"/>
	</g>
	<g transform="translate(303 412)">
		<path class="st0" d="M0,0l-9.9,9.9l0.7,0.7l10-9.9L0,0z"/>
	</g>
</g>
</svg>
