<?xml version="1.0" encoding="utf-8"?>
<!-- Generator: Adobe Illustrator 25.2.0, SVG Export Plug-In . SVG Version: 6.00 Build 0)  -->
<svg version="1.1" id="Layer_1" xmlns="http://www.w3.org/2000/svg" xmlns:xlink="http://www.w3.org/1999/xlink" x="0px" y="0px"
	 viewBox="0 0 90.9 90.9" style="enable-background:new 0 0 90.9 90.9;" xml:space="preserve">
<style type="text/css">
	.st0{fill:#DD4814;}
	.st1{fill:#FFFFFF;}
</style>
<circle class="st0" cx="45.3" cy="45.6" r="45.3"/>
<path class="st1" d="M14.5,39.5c-3.3,0-6.1,2.7-6.1,6.1c0,3.3,2.7,6.1,6.1,6.1c3.3,0,6.1-2.7,6.1-6.1C20.6,42.2,17.8,39.5,14.5,39.5
	z M57.7,67c-2.9,1.7-3.9,5.4-2.2,8.3c1.7,2.9,5.4,3.9,8.3,2.2c2.9-1.7,3.9-5.4,2.2-8.3C64.3,66.3,60.6,65.4,57.7,67z M27.7,45.6
	c0-6,3-11.3,7.5-14.5l-4.4-7.4c-5.3,3.5-9.2,8.9-10.9,15.3c1.9,1.6,3.1,3.9,3.1,6.6c0,2.7-1.2,5-3.1,6.6c1.6,6.3,5.6,11.7,10.9,15.3
	l4.4-7.4C30.6,56.8,27.7,51.6,27.7,45.6z M45.3,27.9c9.2,0,16.8,7.1,17.6,16.1l8.6-0.1c-0.4-6.7-3.3-12.6-7.8-17.1
	c-2.3,0.9-5,0.7-7.3-0.6c-2.3-1.3-3.7-3.6-4.1-6c-2.2-0.6-4.6-1-7-1c-4.2,0-8.1,1-11.7,2.7l4.2,7.5C40.1,28.5,42.7,27.9,45.3,27.9z
	 M45.3,63.2c-2.7,0-5.2-0.6-7.4-1.6l-4.2,7.5c3.5,1.7,7.5,2.7,11.7,2.7c2.4,0,4.8-0.3,7-1c0.4-2.4,1.8-4.7,4.1-6
	c2.3-1.3,5-1.5,7.3-0.6c4.5-4.4,7.4-10.4,7.8-17.1l-8.6-0.1C62.1,56.2,54.6,63.2,45.3,63.2z M57.7,24.1c2.9,1.7,6.6,0.7,8.3-2.2
	c1.7-2.9,0.7-6.6-2.2-8.3c-2.9-1.7-6.6-0.7-8.3,2.2C53.8,18.7,54.8,22.4,57.7,24.1z"/>
</svg>
