<?xml version="1.0" encoding="utf-8"?>
<!-- Generator: Adobe Illustrator 25.2.0, SVG Export Plug-In . SVG Version: 6.00 Build 0)  -->
<svg version="1.1" id="Layer_1" xmlns="http://www.w3.org/2000/svg" xmlns:xlink="http://www.w3.org/1999/xlink" x="0px" y="0px"
	 viewBox="0 0 166.9 167" style="enable-background:new 0 0 166.9 167;" xml:space="preserve">
<style type="text/css">
	.st0{fill:#1793D1;}
</style>
<path class="st0" d="M83.8,0.6c-7.4,18.1-11.9,30-20.1,47.6c5,5.4,11.2,11.6,21.3,18.6c-10.8-4.5-18.2-8.9-23.7-13.6
	c-10.5,22-27.1,53.3-60.6,113.5c26.3-15.2,46.8-24.6,65.8-28.1c-0.8-3.5-1.3-7.3-1.2-11.3l0-0.8c0.4-16.9,9.2-29.8,19.6-29
	s18.5,15.3,18.1,32.2c-0.1,3.2-0.4,6.2-1.1,9.1c18.8,3.7,39,13,65,28c-5.1-9.4-9.7-17.9-14.1-26c-6.9-5.3-14.1-12.3-28.7-19.8
	c10.1,2.6,17.3,5.6,22.9,9C102.6,47.3,99,36.3,83.8,0.6L83.8,0.6L83.8,0.6z"/>
</svg>
