<?xml version="1.0" encoding="utf-8"?>
<!-- Generator: Adobe Illustrator 25.2.0, SVG Export Plug-In . SVG Version: 6.00 Build 0)  -->
<svg version="1.1"
	 id="svg2" xmlns:cc="http://creativecommons.org/ns#" xmlns:dc="http://purl.org/dc/elements/1.1/" xmlns:inkscape="http://www.inkscape.org/namespaces/inkscape" xmlns:rdf="http://www.w3.org/1999/02/22-rdf-syntax-ns#" xmlns:sodipodi="http://sodipodi.sourceforge.net/DTD/sodipodi-0.dtd" xmlns:svg="http://www.w3.org/2000/svg"
	 xmlns="http://www.w3.org/2000/svg" xmlns:xlink="http://www.w3.org/1999/xlink" x="0px" y="0px" viewBox="0 0 608 608"
	 style="enable-background:new 0 0 608 608;" xml:space="preserve">
<style type="text/css">
	.st0{fill:#FFFFFF;}
</style>
<defs>
	<inkscape:path-effect  effect="spiro" id="path-effect2991" is_visible="true"></inkscape:path-effect>
	<inkscape:path-effect  effect="spiro" id="path-effect3177" is_visible="true"></inkscape:path-effect>
</defs>
<sodipodi:namedview  bordercolor="#666666" borderopacity="1.0" fit-margin-bottom="4" fit-margin-left="4" fit-margin-right="4" fit-margin-top="4" id="base" inkscape:current-layer="layer1" inkscape:cx="307.58515" inkscape:cy="297.85403" inkscape:document-units="px" inkscape:guide-bbox="true" inkscape:pageopacity="0.0" inkscape:pageshadow="2" inkscape:window-height="852" inkscape:window-maximized="0" inkscape:window-width="1440" inkscape:window-x="0" inkscape:window-y="0" inkscape:zoom="0.97625" pagecolor="#ffffff" showgrid="false" showguides="true">
	<sodipodi:guide  id="guide2985" orientation="1,0" position="4,4"></sodipodi:guide>
	<sodipodi:guide  id="guide2987" orientation="1,0" position="604,459.18566"></sodipodi:guide>
	<sodipodi:guide  id="guide2989" orientation="0,1" position="-198.43278,4"></sodipodi:guide>
	<sodipodi:guide  id="guide2991" orientation="0,1" position="-265.01408,604"></sodipodi:guide>
</sodipodi:namedview>
<g id="layer1" transform="translate(-96,-348.36218)" inkscape:groupmode="layer" inkscape:label="Layer 1">
	<path id="path2993" inkscape:connector-curvature="0" class="st0" d="M400,352.4c-165.7,0-300,134.3-300,300s134.3,300,300,300
		s300-134.3,300-300S565.7,352.4,400,352.4z M400,377.4c126,0,232.2,84.7,264.7,200.2c-28,57.9-68,109.9-116.6,152
		c-23.3,20.2-48.8,38.2-77,50.9s-59.1,19.9-90,18.1c-23.2-1.3-46.1-7.8-66.3-19c53.8-29.1,102.3-68,142-114.5
		c26.1-30.5,48.9-65.2,57.7-104.4c4.4-19.6,5.1-40.1,1-59.8c-4.1-19.6-13.2-38.4-26.9-53c-13.4-14.3-31.1-24.4-50-29.6
		s-39-5.6-58.3-2.1c-38.6,7.1-73,29.5-100.7,57.3c-48.7,49.1-78.8,118.3-73.3,187.2c2.8,34.5,14.3,68.3,34.1,96.7
		c4.4,6.3,9.3,12.4,14.5,18.1c-28.8,10.1-58.7,17.3-88.9,21.3c-26-42-41-91.5-41-144.5C125,500.5,248.1,377.4,400,377.4z
		 M401.8,432.9c19.3,0,38.8,5.9,54.2,17.5c13.9,10.5,24.2,25.4,30,41.8s7.3,34.2,5.3,51.5c-4,34.6-21.4,66.3-42.5,94.1
		c-37.3,49.1-87,88.4-142.2,115.9c-5.7,2.8-11.4,5.5-17.2,8.1c-12-10.5-22.3-23-30.2-36.9c-16.4-29-21.8-63.5-18.6-96.7
		c3.2-33.2,14.6-65.2,29.9-94.8c17.7-34.4,41.9-66.9,75.8-85.6C363.3,438.5,382.4,432.9,401.8,432.9z M672.5,615.5
		c1.6,12,2.5,24.3,2.5,36.8c0,151.9-123.1,275-275,275c-85.3,0-161.5-38.8-212-99.8c31.1-7.1,61.6-17.2,90.8-30.2
		c12.8,9.7,26.9,17.7,41.8,23.4c43.2,16.5,92.1,14.1,135.8-1s82.4-42.3,116.2-73.8C612.8,708.5,646.7,664.2,672.5,615.5z"/>
</g>
</svg>
