<?xml version="1.0" encoding="utf-8"?>
<!-- Generator: Adobe Illustrator 25.2.0, SVG Export Plug-In . SVG Version: 6.00 Build 0)  -->
<svg version="1.1"
	 id="svg2" inkscape:output_extension="org.inkscape.output.svg.inkscape" sodipodi:docbase="/home/rugby471/Desktop" sodipodi:modified="true" sodipodi:version="0.32" xmlns:cc="http://web.resource.org/cc/" xmlns:dc="http://purl.org/dc/elements/1.1/" xmlns:inkscape="http://www.inkscape.org/namespaces/inkscape" xmlns:rdf="http://www.w3.org/1999/02/22-rdf-syntax-ns#" xmlns:sodipodi="http://sodipodi.sourceforge.net/DTD/sodipodi-0.dtd" xmlns:svg="http://www.w3.org/2000/svg"
	 xmlns="http://www.w3.org/2000/svg" xmlns:xlink="http://www.w3.org/1999/xlink" x="0px" y="0px" viewBox="0 0 244.7 253.7"
	 style="enable-background:new 0 0 244.7 253.7;" xml:space="preserve">
<style type="text/css">
	.st0{fill:#E7E7FE;stroke:#000000;stroke-width:0.9884;}
	.st1{fill:none;stroke:#000000;stroke-width:0.9884;stroke-dasharray:3.9538,3.9538;}
	.st2{fill-rule:evenodd;clip-rule:evenodd;fill:#BDBF00;stroke:#000000;stroke-width:0.825;}
	.st3{fill-rule:evenodd;clip-rule:evenodd;fill:#E7C100;stroke:#000000;stroke-width:0.825;}
	.st4{fill-rule:evenodd;clip-rule:evenodd;fill:#979996;stroke:#000000;}
	.st5{fill-rule:evenodd;clip-rule:evenodd;fill:#8B8D8A;stroke:#000000;}
	.st6{fill:none;stroke:#000000;}
	.st7{fill-rule:evenodd;clip-rule:evenodd;fill:#F1F3F0;stroke:#000000;}
	.st8{fill-rule:evenodd;clip-rule:evenodd;fill:#FFFFFF;stroke:#000000;stroke-width:0.6;}
	.st9{fill-rule:evenodd;clip-rule:evenodd;stroke:#000000;}
	.st10{fill-rule:evenodd;clip-rule:evenodd;fill:#ED9E75;stroke:#000000;}
	.st11{opacity:0.6351;enable-background:new    ;}
	.st12{fill:none;stroke:#000000;stroke-dasharray:4,2;}
	.st13{fill-rule:evenodd;clip-rule:evenodd;fill:#E7C100;}
</style>
<path id="path7080" class="st0" d="M243,133.2c0,66.5-54.4,120.5-121.5,120.5S0,199.7,0,133.2S54.4,12.7,121.5,12.7
	S243,66.7,243,133.2z"/>
<path id="path9020" class="st1" d="M241,120c0,65.4-53.3,118.5-119,118.5S3,185.5,3,120S56.3,1.5,122,1.5S241,54.6,241,120z"/>
<path id="path14891" class="st2" d="M165.7,210.6c0.6,3.2,3.2,4.6,3.2,4.6c13.3,0.4,23.9-2.1,23.9-2.1s3.1,1.5-3.6,5.3h-7.3
	c0,0-1.4,3.4-5.6,6.1h-6.7l-2.5,2.5l0.1,0.1l-8.1,0.9l-6.3-10.8L165.7,210.6z"/>
<path id="path13918" class="st3" d="M141.2,217.9c0,0,2.9,1,2.7,2.7c0,0-0.4,3.7-5.5,6.5c0,0-8.4,4.1-8.8,5.5c0,0-1.2,3.6,3.4,3
	c0,0,5.5-2.1,7.3-2.1c0,0,3.2,2.5,7.8,2.4c0,0,4.1-2.9,5.6-2.5c0,0,4.1,2.6,6.3,2.2c0,0,5.5-2.5,6.2-2.4c0,0,4.2,3.4,7.6,3.4
	l3.9-0.1c3.7-0.6,2.2-3.7,2.2-3.7l-21.5-13.2c-1.7-1.5-0.7-3.5-0.7-3.5c4.2-1.5,8.1-5,8.1-5c0.2-1.5,0-3.7,0-3.7"/>
<path id="path13920" class="st2" d="M78.7,210.6c-0.6,3.2-3.2,4.6-3.2,4.6c-13.3,0.4-23.9-2.1-23.9-2.1s-3.1,1.5,3.6,5.3h7.3
	c0,0,1.4,3.4,5.6,6.1h6.7l2.5,2.5v0.2l5.7-1.7l6.6-5.3l-2.1-6.3L78.7,210.6z"/>
<path id="path12947" class="st3" d="M102.8,217.9c0,0-2.9,1-2.7,2.7c0,0,0.4,3.7,5.5,6.5c0,0,8.4,4.1,8.8,5.5c0,0,1.2,3.6-3.4,3
	c0,0-5.5-2.1-7.3-2.1c0,0-3.2,2.5-7.8,2.4c0,0-4.1-2.9-5.6-2.5c0,0-4.1,2.6-6.3,2.2c0,0-5.5-2.5-6.2-2.4c0,0-4.2,3.4-7.6,3.4
	l-3.9-0.1c-3.7-0.6-2.2-3.7-2.2-3.7l21.5-13.2c1.7-1.5,0.7-3.5,0.7-3.5c-4.2-1.5-8.1-5-8.1-5c-0.2-1.5,0.1-3.5,0.1-3.5"/>
<path id="path2172" class="st4" d="M162.3,116.1c11.2,0,28.8-16.9,28.8-16.9c14.9-13.2,25.1-19.6,25.1-19.6c6.2-3.7,6,4.2,6,4.2
	l-1,5.2l-16.9,31.3l0.9,0.6l-1.4,7.7l-15.5,2.8h-19L162.3,116.1z"/>
<path id="path2170" class="st4" d="M81.7,116.1c-11.2,0-28.8-16.9-28.8-16.9C38,86,27.8,79.5,27.8,79.5c-6.2-3.7-6,4.2-6,4.2l1,5.2
	l16.9,31.3l17.9,13.9l17.6-9.1l7-4.2L81.7,116.1z"/>
<path id="path2161" class="st5" d="M121.7,35.6c0,0-24.8,0-27.8,26.3v21.2c0,17.6-7,32.9-23.6,40.7l-3.5,0c-1.5-0.2-1.2-2.8-2.7-2.8
	H7.4c0.1,0.6-5.2,0.5-5.2,0.5c0,0-1.1,1.6,0,4.2c0,0,6.5,9.9,32.6,19.4c0,0,24.1,9.8,30.3,27.6c4.6,10.7,6.2,26.7,10.7,32.3
	c0,0,0,0.1,0,0.1c7.3,7.4,17.4,10.7,27.4,12.6c0,0,10.4,0,18.5-2.3c8.1,2.3,18.5,2.3,18.5,2.3c10-1.8,20.1-5.2,27.4-12.6
	c0,0,0-0.1,0-0.1c4.5-5.6,6.1-21.7,10.7-32.3c6.2-17.8,30.3-27.6,30.3-27.6c26.1-9.4,32.6-19.4,32.6-19.4c1.1-2.6,0-4.2,0-4.2
	s-5.3,0.1-5.2-0.5h-56.7c-1.5,0-1.2,2.5-2.7,2.8l-3.5,0c-16.6-7.7-23.6-23-23.6-40.7V61.9C146.6,35.6,121.7,35.6,121.7,35.6z"/>
<path id="path2197" class="st6" d="M80.9,127.5c0,0-10.4,17.2-11.6,33.4v17.6c0,0,1.2,12.6,3.5,20.6"/>
<path id="path2199" class="st6" d="M163.1,127.5c0,0,10.4,17.2,11.6,33.4v17.6c0.3,1.1-1.8,12.6-4,20.6"/>
<path id="path2201" class="st7" d="M103,83.3v8.6c0,0-8.1,22.1-9.5,30.7v5.2c0,0-10,14.2-12.3,31.3v22.7
	c1.9,17.2,16.5,22.9,31.8,26.5h9.2h8.6c15.3-3.6,29.9-9.4,31.8-26.5v-22.7c-2.3-17-12.3-31.3-12.3-31.3v-5.2
	c-1.4-8.6-9.5-30.7-9.5-30.7v-8.6H103z"/>
<path id="path3184" class="st8" d="M122.1,70.4v-8.1c1.9-7.6,9.1-8.1,9.1-8.1s7.7,0,9.7,9.3v8.1c0,0-0.9,3.5-2.6,4.4l-8.7,3.7
	l-8.6-6.7L122.1,70.4z"/>
<path id="path3182" class="st8" d="M122,70.4v-8.1c-1.9-7.6-9.1-8.1-9.1-8.1s-7.7,0-9.7,9.3v8.1c0,0,0.9,3.5,2.6,4.4l5.8,3.2
	l10.4-5.4V70.4z"/>
<path id="path3186" class="st9" d="M118,71.3c1.7-0.7,0.8-4.6,0.7-6.3c-1.2-4.7-6-4.7-6-4.7s-6.1,0.9-5.6,6.7c0.1,0-1.1,5.3,1.8,9.1
	"/>
<path id="path2205" class="st10" d="M119,70.6c0,0-6.9,2.5-10.4,6c-22.1-1,5,13.8,11.1,16.2h4.2c6-2.4,33.2-17.2,11.1-16.2
	c-3.5-3.5-10.4-6-10.4-6H119z"/>
<path id="path5138" class="st11" d="M124.8,72c-0.5,0.4-0.7,1.1-0.3,1.6c0.4,0.5,1.1,0.5,1.6,0.1c0.5-0.4,0.7-1.1,0.3-1.6
	C126,71.6,125.3,71.6,124.8,72z"/>
<path id="path4159" class="st6" d="M103,79.9c0,0,7.6,7,18.6,7.3c9-0.6,13.2-3.5,18.9-7.3"/>
<path id="path5136" class="st11" d="M119,72c0.5,0.4,0.7,1.1,0.3,1.6c-0.4,0.5-1.1,0.5-1.6,0.1c-0.5-0.4-0.7-1.1-0.3-1.6
	S118.5,71.6,119,72z"/>
<path id="rect5140" class="st12" d="M20.4,35.6h203.2v202.7H20.4V35.6z"/>
<path id="path26553" class="st9" d="M126.6,71.3c-1.7-0.7-0.8-4.6-0.7-6.3c1.2-4.7,6-4.7,6-4.7s6.1,0.9,5.6,6.7
	c-0.1,0,1.1,5.6-1.8,9.4"/>
<path id="path2200" class="st13" d="M78.7,206.9c11.4,8.6,25.7,10.1,25.7,10.1l-6.5,2.7l-6.7-3.9L78.5,209
	C78.2,207.2,78.7,206.9,78.7,206.9z"/>
<path id="path3173" class="st13" d="M165.3,206.6c-11.4,8.6-25.8,10.3-25.8,10.3l6.5,2.7l6.7-3.9l12.8-6.8
	C165.7,207.2,165.3,206.6,165.3,206.6z"/>
</svg>
