<?xml version="1.0" encoding="utf-8"?>
<!-- Generator: Adobe Illustrator 25.2.0, SVG Export Plug-In . SVG Version: 6.00 Build 0)  -->
<svg version="1.1" id="Layer_1" xmlns="http://www.w3.org/2000/svg" xmlns:xlink="http://www.w3.org/1999/xlink" x="0px" y="0px"
	 viewBox="0 0 1000 560.4" style="enable-background:new 0 0 1000 560.4;" xml:space="preserve">
<style type="text/css">
	.st0{fill:#32DE84;}
</style>
<g transform="translate(-66.97 -261.92)">
	<path class="st0" d="M811,430.8l82.9-143.6c4.7-8.1,1.8-18.3-6.1-23c-7.9-4.7-18.3-2-22.8,6.1l-84,145.5
		c-64.1-29.3-136.2-45.6-213.8-45.6c-77.6,0-149.7,16.3-213.8,45.6l-84-145.5c-4.7-8.1-14.9-10.8-23-6.1c-8.1,4.7-10.8,14.9-6.1,23
		l82.9,143.6C180.4,508.2,83.6,652.9,67.6,822.3h999.3C1050.9,652.9,954.1,508.2,811,430.8L811,430.8z M337.8,681.9
		c-23.2,0-41.9-18.8-41.9-41.9c0-23.2,18.8-41.9,41.9-41.9c23.2,0,41.9,18.8,41.9,41.9C379.8,663.1,361,681.9,337.8,681.9z
		 M796.6,681.9c-23.2,0-41.9-18.8-41.9-41.9c0-23.2,18.8-41.9,41.9-41.9c23.2,0,41.9,18.8,41.9,41.9
		C838.6,663.1,819.7,681.9,796.6,681.9z"/>
</g>
</svg>
