<?xml version="1.0" encoding="utf-8"?>
<!-- Generator: Adobe Illustrator 25.2.0, SVG Export Plug-In . SVG Version: 6.00 Build 0)  -->
<svg version="1.1" id="Layer_1" xmlns="http://www.w3.org/2000/svg" xmlns:xlink="http://www.w3.org/1999/xlink" x="0px" y="0px"
	 viewBox="0 0 108.8 90.2" style="enable-background:new 0 0 108.8 90.2;" xml:space="preserve">
<style type="text/css">
	.st0{fill:#D70751;}
</style>
<path class="st0" d="M61,47.6c-1.5,0,0.3,0.8,2.2,1.1c0.5-0.4,1-0.8,1.5-1.3C63.5,47.8,62.2,47.8,61,47.6"/>
<path class="st0" d="M69,45.6c0.9-1.2,1.5-2.6,1.8-4c-0.2,1-0.7,1.8-1.2,2.7c-2.8,1.8-0.3-1,0-2.1C66.5,46.1,69.1,44.6,69,45.6"/>
<path class="st0" d="M71.9,37.9c0.2-2.7-0.5-1.8-0.8-0.8C71.5,37.3,71.7,39,71.9,37.9"/>
<path class="st0" d="M55.3,1.2c0.8,0.1,1.7,0.3,1.6,0.4C57.8,1.4,58,1.2,55.3,1.2"/>
<path class="st0" d="M56.9,1.6l-0.6,0.1L56.9,1.6L56.9,1.6"/>
<path class="st0" d="M81.8,39c0.1,2.4-0.7,3.6-1.4,5.7L79,45.3c-1.1,2.1,0.1,1.3-0.7,2.9c-1.7,1.5-5,4.6-6.1,4.9
	c-0.8,0,0.5-0.9,0.7-1.3c-2.2,1.5-1.8,2.3-5.2,3.2l-0.1-0.2c-8.3,3.9-19.9-3.8-19.7-14.4c-0.1,0.7-0.3,0.5-0.4,0.8
	c-0.4-5.5,2.5-10.9,7.5-13.2c4.9-2.4,10.6-1.4,14,1.8c-1.9-2.5-5.7-5.2-10.2-4.9c-4.4,0.1-8.6,2.9-9.9,5.9c-2.3,1.4-2.5,5.5-3.5,6.2
	c-1.3,9.8,2.5,14,9,18.9c1,0.7,0.3,0.8,0.4,1.3c-2.1-1-4.1-2.5-5.7-4.4c0.9,1.3,1.8,2.5,3,3.4c-2-0.7-4.7-4.9-5.5-5.1
	c3.5,6.3,14.2,11,19.8,8.6c-2.6,0.1-5.9,0.1-8.8-1c-1.2-0.6-2.9-1.9-2.6-2.2c7.6,2.9,15.5,2.2,22.1-3.1c1.7-1.3,3.5-3.5,4-3.6
	c-0.8,1.2,0.1,0.6-0.5,1.6c1.7-2.7-0.7-1.1,1.7-4.7l0.9,1.2c-0.3-2.2,2.8-5,2.5-8.5c0.7-1.1,0.8,1.2,0,3.7c1.1-2.8,0.3-3.2,0.5-5.5
	c0.3,0.8,0.7,1.6,0.9,2.4c-0.7-2.7,0.7-4.5,1-6.1c-0.3-0.1-1.1,1.2-1.2-2c0-1.4,0.4-0.7,0.5-1.1c-0.3-0.2-1-1.2-1.4-3.2
	c0.3-0.5,0.8,1.2,1.3,1.3c-0.3-1.6-0.7-2.8-0.8-4.1c-1.2-2.6-0.4,0.3-1.4-1.1c-1.3-4.1,1.1-1,1.3-2.8c2,2.9,3.1,7.4,3.7,9.2
	c-0.4-2.3-1-4.5-1.8-6.6c0.6,0.3-1-4.7,0.8-1.4C87.2,15.6,81,9.1,75.3,6c0.7,0.6,1.6,1.4,1.3,1.6c-2.8-1.7-2.3-1.8-2.7-2.5
	c-2.3-0.9-2.5,0.1-4,0c-4.3-2.3-5.2-2.1-9.2-3.5l0.2,0.9c-2.9-1-3.4,0.4-6.5,0c-0.2-0.1,1-0.5,2-0.7c-2.8,0.4-2.7-0.5-5.4,0.1
	c0.7-0.5,1.4-0.8,2.1-1.2c-2.3,0.1-5.4,1.3-4.5,0.2c-3.7,1.7-10.3,4-14,7.4l-0.1-0.8c-1.7,2-7.4,6.1-7.8,8.7l-0.5,0.1
	c-0.9,1.5-1.4,3.2-2.1,4.7c-1.2,2-1.7,0.8-1.5,1.1c-2.3,4.6-3.4,8.4-4.4,11.6c0.7,1,0,6.2,0.3,10.4c-1.1,20.5,14.4,40.5,31.4,45.1
	c2.5,0.9,6.2,0.9,9.3,0.9c-3.7-1.1-4.2-0.6-7.8-1.8c-2.6-1.2-3.2-2.6-5-4.2l0.7,1.3c-3.6-1.3-2.1-1.6-5.1-2.5l0.8-1
	c-1.2-0.1-3.1-2-3.6-3l-1.3,0.1c-1.5-1.9-2.4-3.3-2.3-4.3l-0.4,0.7c-0.5-0.8-5.7-7.2-3-5.7c-0.5-0.5-1.2-0.7-1.9-2.1l0.6-0.6
	c-1.3-1.7-2.4-3.8-2.3-4.5c0.7,0.9,1.2,1.1,1.7,1.3c-3.3-8.2-3.5-0.4-6-8.3l0.5,0c-0.4-0.6-0.6-1.3-1-1.9l0.2-2.3
	c-2.4-2.7-0.7-11.6-0.3-16.5c0.2-2,2-4.1,3.3-7.4L26.2,27c1.5-2.7,8.8-10.8,12.2-10.4c1.6-2-0.3,0-0.6-0.5c3.6-3.7,4.7-2.6,7.1-3.3
	c2.6-1.5-2.2,0.6-1-0.6c4.5-1.1,3.2-2.6,9.1-3.2c0.6,0.4-1.4,0.5-2,1c3.7-1.8,11.9-1.4,17.1,1c6.1,2.9,13,11.3,13.3,19.3l0.3,0.1
	c-0.2,3.2,0.5,6.8-0.6,10.2L81.8,39"/>
<path class="st0" d="M44.7,49.7l-0.2,1c1,1.3,1.8,2.8,3,3.8C46.6,52.8,45.9,52.1,44.7,49.7"/>
<path class="st0" d="M47,49.6c-0.5-0.6-0.8-1.3-1.2-2c0.3,1.2,1,2.3,1.6,3.3L47,49.6"/>
<path class="st0" d="M88.1,40.7l-0.2,0.6c-0.4,2.9-1.3,5.7-2.6,8.3C86.7,46.8,87.7,43.7,88.1,40.7"/>
<path class="st0" d="M55.6,0.4c1-0.4,2.5-0.2,3.6-0.4c-1.4,0.1-2.8,0.2-4.2,0.4L55.6,0.4"/>
<path class="st0" d="M20.1,19.3c0.2,2.2-1.6,3,0.4,1.6C21.6,18.4,20.1,20.2,20.1,19.3"/>
<path class="st0" d="M17.7,29.3c0.5-1.4,0.6-2.3,0.7-3.1C17.2,27.8,17.9,28.2,17.7,29.3"/>
</svg>
