<?xml version="1.0" encoding="utf-8"?>
<!-- Generator: Adobe Illustrator 25.2.0, SVG Export Plug-In . SVG Version: 6.00 Build 0)  -->
<svg version="1.1" id="svg4656" xmlns:svg="http://www.w3.org/2000/svg"
	 xmlns="http://www.w3.org/2000/svg" xmlns:xlink="http://www.w3.org/1999/xlink" x="0px" y="0px" viewBox="0 0 321.3 252"
	 style="enable-background:new 0 0 321.3 252;" xml:space="preserve">
<style type="text/css">
	.st0{fill:#EE0000;}
</style>
<path id="path4607" class="st0" d="M216.7,144.1c20.6,0,50.5-4.3,50.5-28.8c0.1-1.9-0.1-3.8-0.5-5.6l-12.3-53.4
	c-2.8-11.8-5.3-17.1-26-27.4c-16-8.2-50.9-21.7-61.2-21.7c-9.6,0-12.4,12.4-23.8,12.4c-11,0-19.2-9.2-29.5-9.2
	c-9.9,0-16.4,6.7-21.3,20.6c0,0-13.9,39.1-15.7,44.8c-0.3,1-0.4,2.1-0.4,3.2C76.5,94.2,136.4,144.1,216.7,144.1 M270.4,125.3
	c2.9,13.5,2.9,14.9,2.9,16.7c0,23.1-26,35.9-60.1,35.9c-77.2,0-144.8-45.2-144.8-75.1c0-4.2,0.8-8.3,2.5-12.1
	c-27.8,1.4-63.7,6.3-63.7,38.1c0,52,123.1,116,220.6,116c74.7,0,93.6-33.8,93.6-60.5C321.3,163.3,303.1,139.5,270.4,125.3"/>
<path id="path4609" d="M270.4,125.3c2.9,13.5,2.9,14.9,2.9,16.7c0,23.1-26,35.9-60.1,35.9c-77.2,0-144.8-45.2-144.8-75.1
	c0-4.2,0.8-8.3,2.5-12.1l6-15c-0.3,1-0.4,2.1-0.4,3.1c0,15.2,59.9,65.1,140.2,65.1c20.6,0,50.5-4.3,50.5-28.8
	c0.1-1.9-0.1-3.8-0.5-5.6L270.4,125.3L270.4,125.3z"/>
</svg>
