<?xml version="1.0" encoding="utf-8"?>
<!-- Generator: Adobe Illustrator 25.2.0, SVG Export Plug-In . SVG Version: 6.00 Build 0)  -->
<svg version="1.1" id="svg2" xmlns:svg="http://www.w3.org/2000/svg"
	 xmlns="http://www.w3.org/2000/svg" xmlns:xlink="http://www.w3.org/1999/xlink" x="0px" y="0px" viewBox="0 0 161 161"
	 style="enable-background:new 0 0 161 161;" xml:space="preserve">
<style type="text/css">
	.st0{fill-rule:evenodd;clip-rule:evenodd;}
	.st1{fill-rule:evenodd;clip-rule:evenodd;fill:#FE5A1A;}
	.st2{fill-rule:evenodd;clip-rule:evenodd;fill:#3875B4;}
	.st3{fill-rule:evenodd;clip-rule:evenodd;fill:#66BA47;}
	.st4{fill-rule:evenodd;clip-rule:evenodd;fill:#FFCC00;}
</style>
<g id="switch6">
	<g id="g10">
		<g id="Layer_1">
			<g id="g13">
				<path id="path75" class="st0" d="M86.3,21.4v105.5c22.6-13.1,46.5-11.8,71.6,0.3V22.5C133.1,10.7,109.3,11.4,86.3,21.4z"/>
				<path id="path77" class="st0" d="M70.9,28.8v13.3l13.3-7V22.3L70.9,28.8z"/>
				<path id="path79" class="st0" d="M70.9,44v13.3l13.3-7V37.5L70.9,44z"/>
				<path id="path81" class="st0" d="M70.9,59.1v13.3l13.3-6.9V52.6L70.9,59.1z"/>
				<path id="path83" class="st0" d="M70.9,74.3v13.3l13.3-7V67.9L70.9,74.3z"/>
				<path id="path85" class="st0" d="M70.9,89.4v13.2l13.3-6.9V82.8L70.9,89.4z"/>
				<path id="path87" class="st0" d="M70.9,104.9v13.3l13.3-6.9V98.4L70.9,104.9z"/>
				<path id="path89" class="st0" d="M70.9,120.1v13.3l13.3-7v-12.8L70.9,120.1z"/>
				<path id="path91" class="st0" d="M55.8,33.4l12.4-6.2v12l-12.4,6.2V33.4z"/>
				<path id="path93" class="st1" d="M55.8,48.8l12.4-6.2v12l-12.4,6.2L55.8,48.8L55.8,48.8z"/>
				<path id="path95" class="st1" d="M55.8,63.4l12.4-6.2v12l-12.4,6.2V63.4z"/>
				<path id="path97" class="st0" d="M55.8,78.6l12.4-6.2v12l-12.4,6.3V78.6z"/>
				<path id="path99" class="st2" d="M55.8,94l12.4-6.2v12l-12.4,6.3V94z"/>
				<path id="path101" class="st2" d="M55.8,108.7l12.4-6.2v12l-12.4,6.3V108.7z"/>
				<path id="path103" class="st0" d="M55.8,124l12.4-6.2v12L55.8,136V124z"/>
				<path id="path105" class="st0" d="M42.5,32.9L53,27.9v10.5l-10.5,5.1V32.9z"/>
				<path id="path107" class="st1" d="M42.5,48.3L53,43.3v10.6L42.5,59V48.3z"/>
				<path id="path109" class="st1" d="M42.5,62.9L53,58v10.5l-10.5,5.1V62.9z"/>
				<path id="path111" class="st0" d="M42.5,78.2L53,73.3v10.5l-10.5,5.1V78.2z"/>
				<path id="path113" class="st2" d="M42.5,93.7L53,88.6v10.6l-10.5,5.1V93.7z"/>
				<path id="path115" class="st2" d="M42.5,108.3l10.5-5.1v10.6l-10.5,4.9V108.3z"/>
				<path id="path117" class="st0" d="M42.5,123.5l10.5-4.9V129l-10.5,5.1V123.5z"/>
				<path id="path119" class="st0" d="M30.1,41l8.6-3.9v-7.8l-8.6,4.1V41z"/>
				<path id="path121" class="st1" d="M30.1,56.4l8.6-3.9v-7.8l-8.6,4.1V56.4z"/>
				<path id="path123" class="st1" d="M30.1,71l8.6-3.9v-8l-8.6,4.2V71z"/>
				<path id="path125" class="st0" d="M30.1,86.3l8.6-3.9v-7.8l-8.6,4.1V86.3z"/>
				<path id="path127" class="st2" d="M30.1,101.7l8.6-4v-7.8L30.1,94V101.7z"/>
				<path id="path129" class="st2" d="M30.1,116.5l8.6-4v-7.8l-8.6,4.1V116.5z"/>
				<path id="path131" class="st0" d="M30.1,131.6l8.6-3.9v-7.8l-8.6,4.1V131.6z"/>
				<path id="path133" class="st0" d="M18.5,28.3l6.2-3.8v6.6l-6.2,3.5V28.3z"/>
				<path id="path135" class="st1" d="M18.5,43.7l6.2-3.8v6.7L18.5,50V43.7z"/>
				<path id="path137" class="st1" d="M18.5,58.3l6.2-3.8v6.7l-6.2,3.5V58.3z"/>
				<path id="path139" class="st0" d="M18.5,73.6l6.2-3.8v6.7L18.5,80V73.6z"/>
				<path id="path141" class="st2" d="M18.5,89.1l6.2-3.8v6.6l-6.2,3.5V89.1z"/>
				<path id="path143" class="st2" d="M18.5,103.7l6.2-3.8v6.7l-6.2,3.5V103.7z"/>
				<path id="path145" class="st0" d="M18.5,118.9l6.2-3.8v6.7l-6.2,3.4V118.9z"/>
				<path id="path147" class="st0" d="M7.9,24.8l4.8-2.5V27l-4.8,2.1V24.8z"/>
				<path id="path149" class="st1" d="M7.9,40.1l4.8-2.4v4.7l-4.8,2.1V40.1z"/>
				<path id="path151" class="st1" d="M7.9,54.7l4.8-2.3v4.7l-4.8,2V54.7z"/>
				<path id="path153" class="st0" d="M7.9,69.9l4.8-2.4v4.7l-4.8,2.2V69.9z"/>
				<path id="path155" class="st2" d="M7.9,85.4l4.8-2.4v4.6l-4.8,2.1V85.4z"/>
				<path id="path157" class="st2" d="M7.9,100.1l4.8-2.4v4.6l-4.8,2.1V100.1z"/>
				<path id="path159" class="st0" d="M7.9,115.4l4.8-2.5v4.7l-4.8,2.1V115.4z"/>
				<path id="path161" class="st1" d="M86.2,36.1c9.5-4.2,17.2-6.4,24-6.9v33.3c-8.1,0.6-16,3.1-24,6.8V36.1L86.2,36.1z"/>
				<path id="path163" class="st3" d="M119.6,27.7v34.1h9.5c4.2,0,11.1,2.1,14.2,3.3V31.5C135.4,28.1,127.4,26.9,119.6,27.7z"/>
				<path id="path165" class="st4" d="M119.6,71.5v32.8c9.1-0.4,16.1,1,23.6,3.4V74.7C135.4,71.5,127.4,70.6,119.6,71.5z"/>
				<path id="path167" class="st2" d="M86.2,79.7c8.8-4.3,16.8-6.2,24-6.8v31.8c-8.5,1.5-16.7,3.8-24,7.2V79.7L86.2,79.7z"/>
			</g>
		</g>
	</g>
</g>
</svg>
